<svg xmlns="http://www.w3.org/2000/svg" viewBox="0 0 2400 1000"><defs><style>.cls-2{fill:#fff}.cls-4{letter-spacing:-.05em}</style></defs><g id="Layer_1"><rect x="492.9" y="219.98" width="560.03" height="560.03" rx="97.16" style="fill:#ff6e42"/><path class="cls-2" d="M564.52 655.79q-15.82 0-26.46-3.8v-36.8a53.36 53.36 0 0 0 17.33 3.19q20.83 0 26.31-25.85L620.18 411h45.93L625.8 599.37q-11.7 56.42-61.28 56.42zM627.6 371q0-13.23 7.22-20t20.46-6.77q11.1 0 16.88 4.72t5.78 13.53q0 12.16-6.69 19.69t-20.69 7.53q-22.96 0-22.96-18.7zM1007.66 595.66c-5.84 40.2-15.47 60.13-29.55 60.13-17.19 0-51.89-27.14-73.54-57.73-25.09-35-41.93-76.29-56-137.46L706.63 474l-3.78-42.62 137.45-13.04c-3.09-15.12-6.87-43.3-10-70.11h49.14c.34 15.47 3.09 41.58 6.53 65.64l53.26-4.81c-8.93-11-11.68-14.09-30.24-34.71l34.71-25.77c12.37 10.65 26.12 25.43 43 46l-33 24.4 3.43 31.27-63.23 5.85c7.22 35.05 19.93 68.38 36.09 96.22 11 19.24 27.49 38.49 32.3 38.49 2.06 0 2.4-1.72 3.09-8.25l.34-4.47a211.4 211.4 0 0 0 1.38-23.37zm-296.79-5.87c15.81-2.06 42.27-6.19 58.42-9.28 1.72-11.68 2.75-18.21 5.5-41.58l-52.92 5.15-3.78-38.83 128.52-12.71 3.09 38.83-29.21 2.75c-1.71 15.12-2.4 19.93-5.84 38.49 16.84-3.1 34.71-6.53 49.83-10v37.49c-37.11 10.31-96.56 24-137.46 31.61z"/><text transform="translate(1166.89 581.53)" style="font-size:313.57px;font-family:OpenSans-BoldItalic,Open Sans;font-weight:700;font-style:italic;letter-spacing:-.03em;fill:#ff6e42">j<tspan class="cls-4" x="82.74" y="0">shi</tspan><tspan x="468.44" y="0" style="letter-spacing:-.02em">k</tspan><tspan class="cls-4" x="640.24" y="0">i</tspan></text></g></svg>
