<svg xmlns="http://www.w3.org/2000/svg" viewBox="0 0 4772 2048"><path style="fill:none;stroke:#f0f;stroke-miterlimit:10;stroke-width:10px" d="m-9.5-.5 2047 2048"/><path d="M1607.15 131H440.85C270.43 131 131 270.43 131 440.85v1166.3C131 1777.57 270.43 1917 440.85 1917h1166.3c170.42 0 309.85-139.43 309.85-309.85V440.85C1917 270.43 1777.57 131 1607.15 131zM554.84 1340.9q-37.35 179.92-195.45 179.93-50.43 0-84.39-12.12v-117.37q29.6 10.19 55.29 10.19 66.45 0 83.9-82.45L536.89 740h146.47zm144.92-692.66q-21.35 24-66 24-73.23 0-73.23-59.65 0-42.2 23-63.78t65.24-21.58q35.38 0 53.83 15t18.43 43.17q.07 38.84-21.27 62.84zm616.24 695c-118.36 32.88-308 76.72-438.37 100.83l-51.5-133.7c50.41-6.58 134.79-19.73 186.3-29.59 5.48-37.26 8.77-58.09 17.54-132.61l-168.77 16.42-12.06-123.84L1259 1000.2l9.87 123.84-93.16 8.77c-5.48 48.22-7.67 63.56-18.63 122.74 53.7-9.86 110.69-20.82 158.91-31.78zm362.36 177.62c-54.8 0-165.48-86.58-234.53-184.11-80-111.78-133.7-243.29-178.63-438.37l-452.61 42.73-12.06-135.9 438.37-41.64c-9.9-48.22-21.9-138.09-31.78-223.57h156.71c1.1 49.32 9.87 132.61 20.82 209.32L1554.52 734c-28.49-35.07-37.26-44.94-96.44-110.69l110.69-82.19c39.45 34 83.29 81.09 137 146.85l-105.21 77.81 11 99.73-201.65 18.63c23 111.78 63.56 218.08 115.07 306.85 35.07 61.37 87.67 122.74 103 122.74 6.57 0 7.67-5.47 9.86-26.3l1.1-14.24c3.28-30.69 4.38-53.7 4.38-74.53l129.32 130.42c-18.64 128.2-49.35 191.76-94.28 191.76zm558.1 3.14q-50.76 0-85-12.19v-118.06q29.79 10.24 55.67 10.25 66.9 0 84.47-83l123.53-583h147.47l-129.4 604.88Q2395.63 1524 2236.46 1524zm202.14-914.06q0-42.47 23.19-64.2t65.69-21.74q35.63 0 54.18 15.14t18.57 43.46q0 39.06-21.49 63.23t-66.4 24.17q-73.74 0-73.74-60.06zM2949.05 1104q0 91.83-60.79 140.89T2719.09 1294q-52.28 0-91.08-7.33a269.2 269.2 0 0 1-72.5-24.43v-121.18q76.63 43.95 155.76 43.94 39 0 64-15.84t24.9-43.16q0-21-18.06-37.59t-64-42q-59.08-33.21-82.51-66.17t-23.44-77.89q0-83 53.95-128.69T2820.15 728q98.16 0 177.25 46.24L2949.05 879q-68.36-41-126-41-27.86 0-44.93 12.55t-17.09 33.72q0 19.05 15.63 33.45t58.59 36.38q60 30.79 86.91 66.92t26.89 82.98zm497.41 180h-147l66.89-318.84q7.8-33.2 7.81-58.1 0-60-52.74-60.06-44.92 0-81.54 55.67t-57.61 155.27L3134.46 1284h-147l161.14-760h147q-19.05 88.5-29.3 135.92t-42 151.07h3.9q30.27-37.61 67.38-60.28t85.95-22.71q67.38 0 104.25 40.77t36.86 116.42q0 35.63-11.22 87.86zm244.01 0h-147l115.74-546h147zm-7.81-674.06q0-42.47 23.18-64.2t65.68-21.74q35.63 0 54.18 15.14t18.57 43.46q0 39.06-21.49 63.23t-66.4 24.17q-73.74 0-73.72-60.06zM4223.52 738h168l-243.19 246.14L4287.48 1284h-164.06l-89.36-205.11-58.59 35.16-36.13 170h-147L3953.5 524h147l-72.3 339q-3.91 20-14.15 57.16L4000.38 970h1.95zm263.69 546h-147L4456 738h147zm-7.81-674.06q0-42.47 23.19-64.2t65.67-21.74q35.63 0 54.19 15.14T4641 582.6q0 39.06-21.48 63.23t-66.4 24.17q-73.74 0-73.72-60.06z" style="fill:#ff6e42"/></svg>
