<svg xmlns="http://www.w3.org/2000/svg" viewBox="0 0 2048 2048"><defs><style>.cls-1{fill:#ff6e42}</style></defs><path id="Layer_2" d="M0 6h2048v2048H0z" class="cls-1"/><g id="Layer_1"><rect width="1786" height="1786" x="131" y="131" rx="309.85" style="fill:#fff"/><path d="M359.39 1520.83q-50.43 0-84.39-12.12v-117.37q29.6 10.19 55.29 10.19 66.45 0 83.9-82.45L536.89 740h146.47l-128.52 600.9q-37.35 179.92-195.45 179.93M560.57 612.6q0-42.2 23-63.78t65.24-21.58q35.38 0 53.83 15t18.43 43.17q0 38.8-21.34 62.8t-66 24q-73.16.04-73.16-59.61m1212.04 716.46c-18.63 128.22-49.32 191.78-94.25 191.78-54.8 0-165.48-86.58-234.53-184.11-80-111.78-133.7-243.29-178.63-438.37l-452.61 42.75-12.06-135.9 438.37-41.64c-9.9-48.22-21.9-138.09-31.78-223.57h156.71c1.1 49.32 9.87 132.61 20.82 209.32L1554.52 734c-28.49-35.07-37.26-44.94-96.44-110.69l110.69-82.19c39.45 34 83.29 81.09 137 146.85l-105.21 77.81 11 99.73-201.65 18.63c23 111.78 63.56 218.08 115.07 306.85 35.07 61.37 87.67 122.74 103 122.74 6.57 0 7.67-5.47 9.86-26.3l1.1-14.24c3.28-30.69 4.38-53.7 4.38-74.53zm-946.48-18.71c50.41-6.58 134.79-19.73 186.3-29.59 5.48-37.26 8.77-58.09 17.54-132.61l-168.77 16.44-12.06-123.84L1259 1000.2l9.87 123.84-93.16 8.77c-5.48 48.22-7.67 63.56-18.63 122.74 53.7-9.86 110.69-20.82 158.91-31.78v119.45c-118.36 32.88-308 76.72-438.37 100.83z" class="cls-1"/></g></svg>
