<svg xmlns="http://www.w3.org/2000/svg" viewBox="0 0 2400 1000"><defs><style>.cls-1{fill:#ff6e42}</style></defs><g id="Layer_1"><rect width="560.03" height="560.03" x="492.9" y="219.98" class="cls-1" rx="97.16"/><path d="M564.52 655.79q-15.82 0-26.46-3.8v-36.8a53.4 53.4 0 0 0 17.33 3.19q20.83 0 26.31-25.85L620.18 411h45.93L625.8 599.37q-11.7 56.42-61.28 56.42M627.6 371q0-13.23 7.22-20t20.46-6.77q11.1 0 16.88 4.72t5.78 13.53q0 12.16-6.69 19.69t-20.69 7.53q-22.96 0-22.96-18.7m380.06 224.66c-5.84 40.2-15.47 60.13-29.55 60.13-17.19 0-51.89-27.14-73.54-57.73-25.09-35-41.93-76.29-56-137.46L706.63 474l-3.78-42.62 137.45-13.04c-3.09-15.12-6.87-43.3-10-70.11h49.14c.34 15.47 3.09 41.58 6.53 65.64l53.26-4.81c-8.93-11-11.68-14.09-30.24-34.71l34.71-25.77c12.37 10.65 26.12 25.43 43 46l-33 24.4 3.43 31.27-63.23 5.85c7.22 35.05 19.93 68.38 36.09 96.22 11 19.24 27.49 38.49 32.3 38.49 2.06 0 2.4-1.72 3.09-8.25l.34-4.47a211 211 0 0 0 1.38-23.37zm-296.79-5.87c15.81-2.06 42.27-6.19 58.42-9.28 1.72-11.68 2.75-18.21 5.5-41.58l-52.92 5.15-3.78-38.83 128.52-12.71 3.09 38.83-29.21 2.75c-1.71 15.12-2.4 19.93-5.84 38.49 16.84-3.1 34.71-6.53 49.83-10v37.49c-37.11 10.31-96.56 24-137.46 31.61z" style="fill:#fff"/><path d="M1153.11 656.86q-15.93 0-26.64-3.83V616a53.8 53.8 0 0 0 17.45 3.21q21 0 26.49-26l38.74-182.81h46.23l-40.57 189.7q-11.81 56.76-61.7 56.76m63.38-286.62q0-13.32 7.28-20.14t20.59-6.81q11.17 0 17 4.75t5.81 13.62q0 12.25-6.73 19.83t-20.83 7.58q-23.11 0-23.12-18.83M1376.56 525q0 28.79-19.06 44.17t-53.06 15.39a156 156 0 0 1-28.55-2.3 84.7 84.7 0 0 1-22.74-7.65v-38q24 13.77 48.84 13.78 12.26 0 20.06-5t7.81-13.55q0-6.58-5.67-11.79t-20-13.17q-18.53-10.41-25.88-20.74t-7.35-24.42q0-26 16.92-40.35t48.31-14.32q30.77 0 55.58 14.55l-15.16 32.92q-21.43-12.86-39.5-12.86-8.73 0-14.09 3.9a12.34 12.34 0 0 0-5.36 10.49 13.87 13.87 0 0 0 4.9 10.49q4.9 4.51 18.37 11.41 18.84 9.64 27.26 21a42.52 42.52 0 0 1 8.37 26.05m155.97 56.53h-46.09l21-100a81.2 81.2 0 0 0 2.45-18.22q0-18.84-16.54-18.84-14.08 0-25.57 17.46t-18.06 48.69l-15 70.89h-46.08l50.52-238.24h46.09q-6 27.7-9.19 42.56t-13.16 47.31h1.22a82.5 82.5 0 0 1 21.13-18.91q11.64-7.11 27-7.12 21.12 0 32.69 12.79t11.56 36.52q0 11.18-3.53 27.56zm76.47 0h-46l36.29-171.18h46.09zm-2.45-211.29q0-13.32 7.27-20.14t20.6-6.81q11.16 0 17 4.75t5.82 13.62q0 12.25-6.74 19.83t-20.82 7.58q-23.1 0-23.09-18.83zm169.64 40.11h52.67l-76.25 77.17 43.64 94h-51.45l-28-64.31-18.37 11-11.33 53.28H1641l50.53-238.24h46.08l-22.66 106.26q-1.21 6.27-4.44 17.91l-4.28 15.62h.61zm82.68 171.18h-46.08l36.28-171.18h46.09zm-2.45-211.29q0-13.32 7.28-20.14t20.59-6.81q11.18 0 17 4.75t5.82 13.62q0 12.25-6.73 19.83t-20.83 7.58q-23.12 0-23.13-18.83" class="cls-1"/></g></svg>
