<svg xmlns="http://www.w3.org/2000/svg" viewBox="0 0 32 32"><rect width="32" height="32" rx="5.55" style="fill:#ff6e42"/><path d="M4.09 24.9a4.42 4.42 0 0 1-1.51-.22v-2.1a3.06 3.06 0 0 0 1 .18c.79 0 1.3-.49 1.5-1.47l2.2-10.38H9.9L7.59 21.68q-.66 3.22-3.5 3.22zM7.7 8.63a1.45 1.45 0 0 1 .41-1.14 1.62 1.62 0 0 1 1.17-.39 1.48 1.48 0 0 1 1 .27.94.94 0 0 1 .33.77 1.61 1.61 0 0 1-.38 1.13A1.52 1.52 0 0 1 9 9.7c-.87 0-1.3-.36-1.3-1.07zm21.71 12.84c-.33 2.29-.88 3.43-1.69 3.43-1 0-3-1.55-4.2-3.3a21.08 21.08 0 0 1-3.2-7.85l-8.11.76-.21-2.43 7.85-.75c-.18-.86-.39-2.47-.57-4h2.81c0 .88.18 2.37.37 3.75l3.05-.28c-.52-.62-.67-.8-1.73-2l2-1.47A21.38 21.38 0 0 1 28.22 10l-1.89 1.39.2 1.79-3.62.33A18.51 18.51 0 0 0 25 19c.62 1.1 1.57 2.2 1.84 2.2s.14-.1.18-.47v-.26a11.94 11.94 0 0 0 .08-1.33zm-17-.34c.91-.12 2.42-.35 3.34-.53.1-.67.16-1 .32-2.38l-3 .3-.21-2.22 7.34-.73.18 2.22-1.66.21c-.1.86-.14 1.14-.34 2.2 1-.18 2-.37 2.85-.57v2.14c-2.12.59-5.52 1.37-7.85 1.81z" style="fill:#fff"/></svg>
