<svg xmlns="http://www.w3.org/2000/svg" viewBox="0 0 2048 2048"><path d="M1607.15 131H440.85C270.43 131 131 270.43 131 440.85v1166.3C131 1777.57 270.43 1917 440.85 1917h1166.3c170.42 0 309.85-139.43 309.85-309.85V440.85C1917 270.43 1777.57 131 1607.15 131zM554.84 1340.9q-37.35 179.92-195.45 179.93-50.43 0-84.39-12.12v-117.37q29.6 10.19 55.29 10.19 66.45 0 83.9-82.45L536.89 740h146.47zm144.92-692.66q-21.35 24-66 24-73.23 0-73.23-59.65 0-42.2 23-63.78t65.24-21.58q35.38 0 53.83 15t18.43 43.17q.07 38.84-21.27 62.84zm616.24 695c-118.36 32.88-308 76.72-438.37 100.83l-51.5-133.7c50.41-6.58 134.79-19.73 186.3-29.59 5.48-37.26 8.77-58.09 17.54-132.61l-168.77 16.42-12.06-123.84L1259 1000.2l9.87 123.84-93.16 8.77c-5.48 48.22-7.67 63.56-18.63 122.74 53.7-9.86 110.69-20.82 158.91-31.78zm362.36 177.62c-54.8 0-165.48-86.58-234.53-184.11-80-111.78-133.7-243.29-178.63-438.37L812.59 941.1l-12.06-135.89 438.37-41.64c-9.9-48.22-21.9-138.09-31.78-223.57h156.71c1.1 49.32 9.87 132.61 20.82 209.32L1554.52 734c-28.49-35.07-37.26-44.94-96.44-110.69l110.69-82.19c39.45 34 83.29 81.09 137 146.85l-105.21 77.81 11 99.73-201.65 18.63c23 111.78 63.56 218.08 115.07 306.85 35.07 61.37 87.67 122.74 103 122.74 6.57 0 7.67-5.47 9.86-26.3l1.1-14.24c3.28-30.69 4.38-53.7 4.38-74.53l129.32 130.42c-18.64 128.2-49.35 191.76-94.28 191.76z" style="fill:#fff"/></svg>
